<mxfile host="app.diagrams.net" agent="Mozilla/5.0 (Windows NT 10.0; Win64; x64) AppleWebKit/537.36 (KHTML, like Gecko) Chrome/137.0.0.0 Safari/537.36" version="27.1.0">
  <diagram name="Page-1" id="CfpcyqOXmGRrJxeQAXii">
    <mxGraphModel dx="2610" dy="1121" grid="1" gridSize="10" guides="1" tooltips="1" connect="1" arrows="1" fold="1" page="1" pageScale="1" pageWidth="827" pageHeight="1169" math="0" shadow="0">
      <root>
        <mxCell id="0" />
        <mxCell id="1" parent="0" />
        <mxCell id="McivVPNCyXZ7DG13D_mT-1" value="Action" style="html=1;whiteSpace=wrap;fillColor=#dae8fc;strokeColor=#6c8ebf;" parent="1" vertex="1">
          <mxGeometry x="369" y="250" width="110" height="50" as="geometry" />
        </mxCell>
        <mxCell id="McivVPNCyXZ7DG13D_mT-2" value="ActuationAction" style="html=1;whiteSpace=wrap;fillColor=#dae8fc;strokeColor=#6c8ebf;" parent="1" vertex="1">
          <mxGeometry x="229" y="340" width="110" height="50" as="geometry" />
        </mxCell>
        <mxCell id="McivVPNCyXZ7DG13D_mT-3" value="ReconfigurationAction" style="html=1;whiteSpace=wrap;fillColor=#dae8fc;strokeColor=#6c8ebf;" parent="1" vertex="1">
          <mxGeometry x="479" y="340" width="140" height="50" as="geometry" />
        </mxCell>
        <mxCell id="McivVPNCyXZ7DG13D_mT-4" value="" style="endArrow=classic;html=1;rounded=0;exitX=0;exitY=0.5;exitDx=0;exitDy=0;entryX=0.5;entryY=0;entryDx=0;entryDy=0;" parent="1" source="McivVPNCyXZ7DG13D_mT-1" target="McivVPNCyXZ7DG13D_mT-2" edge="1">
          <mxGeometry relative="1" as="geometry">
            <mxPoint x="419" y="440" as="sourcePoint" />
            <mxPoint x="519" y="440" as="targetPoint" />
            <Array as="points">
              <mxPoint x="284" y="275" />
            </Array>
          </mxGeometry>
        </mxCell>
        <mxCell id="McivVPNCyXZ7DG13D_mT-5" value="hasSubclass" style="edgeLabel;resizable=0;html=1;;align=center;verticalAlign=middle;" parent="McivVPNCyXZ7DG13D_mT-4" connectable="0" vertex="1">
          <mxGeometry relative="1" as="geometry" />
        </mxCell>
        <mxCell id="McivVPNCyXZ7DG13D_mT-6" value="" style="endArrow=classic;html=1;rounded=0;exitX=1;exitY=0.5;exitDx=0;exitDy=0;entryX=0.51;entryY=0.004;entryDx=0;entryDy=0;entryPerimeter=0;" parent="1" source="McivVPNCyXZ7DG13D_mT-1" target="McivVPNCyXZ7DG13D_mT-3" edge="1">
          <mxGeometry relative="1" as="geometry">
            <mxPoint x="419" y="290" as="sourcePoint" />
            <mxPoint x="550" y="320" as="targetPoint" />
            <Array as="points">
              <mxPoint x="550" y="275" />
            </Array>
          </mxGeometry>
        </mxCell>
        <mxCell id="McivVPNCyXZ7DG13D_mT-7" value="hasSubclass" style="edgeLabel;resizable=0;html=1;;align=center;verticalAlign=middle;" parent="McivVPNCyXZ7DG13D_mT-6" connectable="0" vertex="1">
          <mxGeometry relative="1" as="geometry" />
        </mxCell>
        <mxCell id="McivVPNCyXZ7DG13D_mT-15" value="ActuatorState" style="whiteSpace=wrap;html=1;align=center;fillColor=#dae8fc;strokeColor=#6c8ebf;" parent="1" vertex="1">
          <mxGeometry x="109" y="440" width="110" height="50" as="geometry" />
        </mxCell>
        <mxCell id="McivVPNCyXZ7DG13D_mT-16" value="" style="endArrow=classic;html=1;rounded=0;exitX=0;exitY=0.5;exitDx=0;exitDy=0;entryX=0.5;entryY=0;entryDx=0;entryDy=0;" parent="1" source="McivVPNCyXZ7DG13D_mT-2" target="McivVPNCyXZ7DG13D_mT-15" edge="1">
          <mxGeometry relative="1" as="geometry">
            <mxPoint x="389" y="450" as="sourcePoint" />
            <mxPoint x="489" y="450" as="targetPoint" />
            <Array as="points">
              <mxPoint x="164" y="365" />
            </Array>
          </mxGeometry>
        </mxCell>
        <mxCell id="McivVPNCyXZ7DG13D_mT-17" value="hasActuatorState" style="edgeLabel;resizable=0;html=1;;align=center;verticalAlign=middle;" parent="McivVPNCyXZ7DG13D_mT-16" connectable="0" vertex="1">
          <mxGeometry relative="1" as="geometry" />
        </mxCell>
        <mxCell id="McivVPNCyXZ7DG13D_mT-18" value="ConfigurableParameter" style="html=1;whiteSpace=wrap;fillColor=#dae8fc;strokeColor=#6c8ebf;" parent="1" vertex="1">
          <mxGeometry x="469" y="670" width="140" height="50" as="geometry" />
        </mxCell>
        <mxCell id="McivVPNCyXZ7DG13D_mT-19" value="Effect" style="html=1;whiteSpace=wrap;fillColor=#dae8fc;strokeColor=#6c8ebf;" parent="1" vertex="1">
          <mxGeometry x="369" y="450" width="110" height="50" as="geometry" />
        </mxCell>
        <mxCell id="McivVPNCyXZ7DG13D_mT-20" value="" style="endArrow=classic;html=1;rounded=0;entryX=0.362;entryY=0.04;entryDx=0;entryDy=0;exitX=0.293;exitY=1.005;exitDx=0;exitDy=0;exitPerimeter=0;entryPerimeter=0;" parent="1" source="McivVPNCyXZ7DG13D_mT-3" target="McivVPNCyXZ7DG13D_mT-18" edge="1">
          <mxGeometry relative="1" as="geometry">
            <mxPoint x="450" y="310" as="sourcePoint" />
            <mxPoint x="590" y="370" as="targetPoint" />
            <Array as="points" />
          </mxGeometry>
        </mxCell>
        <mxCell id="McivVPNCyXZ7DG13D_mT-21" value="forProperty" style="edgeLabel;resizable=0;html=1;;align=center;verticalAlign=middle;" parent="McivVPNCyXZ7DG13D_mT-20" connectable="0" vertex="1">
          <mxGeometry relative="1" as="geometry" />
        </mxCell>
        <mxCell id="McivVPNCyXZ7DG13D_mT-22" value="" style="endArrow=classic;html=1;rounded=0;exitX=0;exitY=0.5;exitDx=0;exitDy=0;entryX=0.5;entryY=0;entryDx=0;entryDy=0;" parent="1" source="McivVPNCyXZ7DG13D_mT-3" target="McivVPNCyXZ7DG13D_mT-19" edge="1">
          <mxGeometry relative="1" as="geometry">
            <mxPoint x="639" y="390" as="sourcePoint" />
            <mxPoint x="739" y="390" as="targetPoint" />
            <Array as="points">
              <mxPoint x="424" y="365" />
            </Array>
          </mxGeometry>
        </mxCell>
        <mxCell id="McivVPNCyXZ7DG13D_mT-23" value="affectsPropertyWith" style="edgeLabel;resizable=0;html=1;;align=center;verticalAlign=middle;" parent="McivVPNCyXZ7DG13D_mT-22" connectable="0" vertex="1">
          <mxGeometry relative="1" as="geometry" />
        </mxCell>
        <mxCell id="McivVPNCyXZ7DG13D_mT-24" value="PropertyChangeByActuation" style="html=1;whiteSpace=wrap;fillColor=#dae8fc;strokeColor=#6c8ebf;" parent="1" vertex="1">
          <mxGeometry x="-40" y="550" width="170" height="50" as="geometry" />
        </mxCell>
        <mxCell id="McivVPNCyXZ7DG13D_mT-26" value="" style="endArrow=classic;html=1;rounded=0;exitX=0.5;exitY=1;exitDx=0;exitDy=0;entryX=0.5;entryY=0;entryDx=0;entryDy=0;" parent="1" source="McivVPNCyXZ7DG13D_mT-15" target="McivVPNCyXZ7DG13D_mT-24" edge="1">
          <mxGeometry relative="1" as="geometry">
            <mxPoint x="310" y="530" as="sourcePoint" />
            <mxPoint x="410" y="530" as="targetPoint" />
            <Array as="points">
              <mxPoint x="164" y="510" />
              <mxPoint x="45" y="510" />
            </Array>
          </mxGeometry>
        </mxCell>
        <mxCell id="McivVPNCyXZ7DG13D_mT-27" value="enacts" style="edgeLabel;resizable=0;html=1;;align=center;verticalAlign=middle;" parent="McivVPNCyXZ7DG13D_mT-26" connectable="0" vertex="1">
          <mxGeometry relative="1" as="geometry" />
        </mxCell>
        <mxCell id="McivVPNCyXZ7DG13D_mT-30" value="Actuator" style="html=1;whiteSpace=wrap;fillColor=#d5e8d4;strokeColor=#82b366;" parent="1" vertex="1">
          <mxGeometry x="240" y="550" width="110" height="50" as="geometry" />
        </mxCell>
        <mxCell id="McivVPNCyXZ7DG13D_mT-33" value="" style="endArrow=classic;html=1;rounded=0;exitX=0.5;exitY=0;exitDx=0;exitDy=0;entryX=1;entryY=0.5;entryDx=0;entryDy=0;" parent="1" source="McivVPNCyXZ7DG13D_mT-30" target="McivVPNCyXZ7DG13D_mT-15" edge="1">
          <mxGeometry relative="1" as="geometry">
            <mxPoint x="320" y="500" as="sourcePoint" />
            <mxPoint x="420" y="500" as="targetPoint" />
            <Array as="points">
              <mxPoint x="295" y="465" />
            </Array>
          </mxGeometry>
        </mxCell>
        <mxCell id="McivVPNCyXZ7DG13D_mT-34" value="hasActuatorState" style="edgeLabel;resizable=0;html=1;;align=center;verticalAlign=middle;" parent="McivVPNCyXZ7DG13D_mT-33" connectable="0" vertex="1">
          <mxGeometry relative="1" as="geometry" />
        </mxCell>
        <mxCell id="McivVPNCyXZ7DG13D_mT-35" value="" style="endArrow=classic;html=1;rounded=0;exitX=0;exitY=0.5;exitDx=0;exitDy=0;entryX=1;entryY=0.5;entryDx=0;entryDy=0;" parent="1" source="McivVPNCyXZ7DG13D_mT-15" target="McivVPNCyXZ7DG13D_mT-37" edge="1">
          <mxGeometry relative="1" as="geometry">
            <mxPoint x="39" y="350" as="sourcePoint" />
            <mxPoint x="-21" y="460" as="targetPoint" />
          </mxGeometry>
        </mxCell>
        <mxCell id="McivVPNCyXZ7DG13D_mT-36" value="withStateValueRange" style="edgeLabel;resizable=0;html=1;;align=center;verticalAlign=middle;" parent="McivVPNCyXZ7DG13D_mT-35" connectable="0" vertex="1">
          <mxGeometry relative="1" as="geometry" />
        </mxCell>
        <mxCell id="McivVPNCyXZ7DG13D_mT-37" value="rdfs:Literal" style="html=1;whiteSpace=wrap;fillColor=#ffe6cc;strokeColor=#d79b00;" parent="1" vertex="1">
          <mxGeometry x="-140" y="440" width="110" height="50" as="geometry" />
        </mxCell>
        <mxCell id="McivVPNCyXZ7DG13D_mT-38" value="PropertyChange" style="html=1;whiteSpace=wrap;fillColor=#dae8fc;strokeColor=#6c8ebf;" parent="1" vertex="1">
          <mxGeometry x="-220" y="700" width="110" height="50" as="geometry" />
        </mxCell>
        <mxCell id="McivVPNCyXZ7DG13D_mT-39" value="" style="endArrow=classic;html=1;rounded=0;exitX=0.5;exitY=0;exitDx=0;exitDy=0;entryX=0.005;entryY=0.614;entryDx=0;entryDy=0;entryPerimeter=0;" parent="1" source="McivVPNCyXZ7DG13D_mT-38" target="McivVPNCyXZ7DG13D_mT-24" edge="1">
          <mxGeometry relative="1" as="geometry">
            <mxPoint x="-60" y="650" as="sourcePoint" />
            <mxPoint x="40" y="650" as="targetPoint" />
            <Array as="points">
              <mxPoint x="-165" y="580" />
            </Array>
          </mxGeometry>
        </mxCell>
        <mxCell id="McivVPNCyXZ7DG13D_mT-40" value="hasSubclass" style="edgeLabel;resizable=0;html=1;;align=center;verticalAlign=middle;" parent="McivVPNCyXZ7DG13D_mT-39" connectable="0" vertex="1">
          <mxGeometry relative="1" as="geometry" />
        </mxCell>
        <mxCell id="McivVPNCyXZ7DG13D_mT-41" value="Property" style="html=1;whiteSpace=wrap;fillColor=#d5e8d4;strokeColor=#82b366;" parent="1" vertex="1">
          <mxGeometry x="-100" y="810" width="110" height="50" as="geometry" />
        </mxCell>
        <mxCell id="McivVPNCyXZ7DG13D_mT-42" value="" style="endArrow=classic;html=1;rounded=0;exitX=0.5;exitY=1;exitDx=0;exitDy=0;entryX=0;entryY=0.5;entryDx=0;entryDy=0;" parent="1" source="McivVPNCyXZ7DG13D_mT-38" target="McivVPNCyXZ7DG13D_mT-41" edge="1">
          <mxGeometry relative="1" as="geometry">
            <mxPoint x="-20" y="720" as="sourcePoint" />
            <mxPoint x="80" y="720" as="targetPoint" />
            <Array as="points">
              <mxPoint x="-165" y="835" />
            </Array>
          </mxGeometry>
        </mxCell>
        <mxCell id="McivVPNCyXZ7DG13D_mT-43" value="forProperty" style="edgeLabel;resizable=0;html=1;;align=center;verticalAlign=middle;" parent="McivVPNCyXZ7DG13D_mT-42" connectable="0" vertex="1">
          <mxGeometry relative="1" as="geometry" />
        </mxCell>
        <mxCell id="McivVPNCyXZ7DG13D_mT-44" value="" style="endArrow=classic;html=1;rounded=0;exitX=0.818;exitY=0;exitDx=0;exitDy=0;exitPerimeter=0;entryX=0.281;entryY=1.003;entryDx=0;entryDy=0;entryPerimeter=0;" parent="1" source="McivVPNCyXZ7DG13D_mT-38" target="McivVPNCyXZ7DG13D_mT-19" edge="1">
          <mxGeometry relative="1" as="geometry">
            <mxPoint x="220" y="740" as="sourcePoint" />
            <mxPoint x="400" y="520" as="targetPoint" />
            <Array as="points">
              <mxPoint x="-130" y="620" />
              <mxPoint x="400" y="620" />
            </Array>
          </mxGeometry>
        </mxCell>
        <mxCell id="McivVPNCyXZ7DG13D_mT-45" value="affectsPropertyWith" style="edgeLabel;resizable=0;html=1;;align=center;verticalAlign=middle;" parent="McivVPNCyXZ7DG13D_mT-44" connectable="0" vertex="1">
          <mxGeometry relative="1" as="geometry" />
        </mxCell>
        <mxCell id="McivVPNCyXZ7DG13D_mT-46" value="PropertyChangeByReconfiguration" style="html=1;whiteSpace=wrap;fillColor=#dae8fc;strokeColor=#6c8ebf;" parent="1" vertex="1">
          <mxGeometry x="-83" y="680" width="213" height="50" as="geometry" />
        </mxCell>
        <mxCell id="McivVPNCyXZ7DG13D_mT-47" value="" style="endArrow=classic;html=1;rounded=0;exitX=0.75;exitY=1;exitDx=0;exitDy=0;entryX=0.108;entryY=1;entryDx=0;entryDy=0;entryPerimeter=0;" parent="1" source="McivVPNCyXZ7DG13D_mT-38" target="McivVPNCyXZ7DG13D_mT-46" edge="1">
          <mxGeometry relative="1" as="geometry">
            <mxPoint x="-380" y="700" as="sourcePoint" />
            <mxPoint x="-280" y="700" as="targetPoint" />
            <Array as="points">
              <mxPoint x="-137" y="770" />
              <mxPoint x="-60" y="770" />
            </Array>
          </mxGeometry>
        </mxCell>
        <mxCell id="McivVPNCyXZ7DG13D_mT-48" value="hasSubclass" style="edgeLabel;resizable=0;html=1;;align=center;verticalAlign=middle;" parent="McivVPNCyXZ7DG13D_mT-47" connectable="0" vertex="1">
          <mxGeometry relative="1" as="geometry" />
        </mxCell>
        <mxCell id="McivVPNCyXZ7DG13D_mT-50" value="Plan" style="html=1;whiteSpace=wrap;fillColor=#dae8fc;strokeColor=#6c8ebf;" parent="1" vertex="1">
          <mxGeometry x="100" y="250" width="110" height="50" as="geometry" />
        </mxCell>
        <mxCell id="McivVPNCyXZ7DG13D_mT-51" value="" style="endArrow=classic;html=1;rounded=0;exitX=0.5;exitY=0;exitDx=0;exitDy=0;entryX=0.5;entryY=0;entryDx=0;entryDy=0;" parent="1" source="McivVPNCyXZ7DG13D_mT-50" target="McivVPNCyXZ7DG13D_mT-1" edge="1">
          <mxGeometry relative="1" as="geometry">
            <mxPoint x="170" y="180" as="sourcePoint" />
            <mxPoint x="270" y="180" as="targetPoint" />
            <Array as="points">
              <mxPoint x="155" y="220" />
              <mxPoint x="424" y="220" />
            </Array>
          </mxGeometry>
        </mxCell>
        <mxCell id="McivVPNCyXZ7DG13D_mT-52" value="implements" style="edgeLabel;resizable=0;html=1;;align=center;verticalAlign=middle;" parent="McivVPNCyXZ7DG13D_mT-51" connectable="0" vertex="1">
          <mxGeometry relative="1" as="geometry" />
        </mxCell>
        <mxCell id="McivVPNCyXZ7DG13D_mT-53" value="" style="endArrow=classic;html=1;rounded=0;exitX=0;exitY=0.5;exitDx=0;exitDy=0;entryX=1;entryY=0.5;entryDx=0;entryDy=0;" parent="1" source="McivVPNCyXZ7DG13D_mT-50" edge="1" target="McivVPNCyXZ7DG13D_mT-55">
          <mxGeometry relative="1" as="geometry">
            <mxPoint x="-20" y="360" as="sourcePoint" />
            <mxPoint x="-30" y="275" as="targetPoint" />
          </mxGeometry>
        </mxCell>
        <mxCell id="McivVPNCyXZ7DG13D_mT-54" value="hasTimeLimit" style="edgeLabel;resizable=0;html=1;;align=center;verticalAlign=middle;" parent="McivVPNCyXZ7DG13D_mT-53" connectable="0" vertex="1">
          <mxGeometry relative="1" as="geometry" />
        </mxCell>
        <mxCell id="McivVPNCyXZ7DG13D_mT-55" value="xsd:duration" style="html=1;whiteSpace=wrap;fillColor=#ffe6cc;strokeColor=#d79b00;" parent="1" vertex="1">
          <mxGeometry x="-120" y="250" width="110" height="50" as="geometry" />
        </mxCell>
        <mxCell id="McivVPNCyXZ7DG13D_mT-56" value="Platform" style="html=1;whiteSpace=wrap;fillColor=#d5e8d4;strokeColor=#82b366;" parent="1" vertex="1">
          <mxGeometry x="-469" y="760" width="110" height="50" as="geometry" />
        </mxCell>
        <mxCell id="McivVPNCyXZ7DG13D_mT-57" value="OptimalCondition" style="html=1;whiteSpace=wrap;fillColor=#dae8fc;strokeColor=#6c8ebf;" parent="1" vertex="1">
          <mxGeometry x="-330" y="900" width="110" height="50" as="geometry" />
        </mxCell>
        <mxCell id="McivVPNCyXZ7DG13D_mT-58" value="" style="endArrow=classic;html=1;rounded=0;exitX=1;exitY=0.5;exitDx=0;exitDy=0;entryX=0.298;entryY=1.014;entryDx=0;entryDy=0;entryPerimeter=0;" parent="1" source="McivVPNCyXZ7DG13D_mT-56" target="McivVPNCyXZ7DG13D_mT-38" edge="1">
          <mxGeometry relative="1" as="geometry">
            <mxPoint x="-330" y="870" as="sourcePoint" />
            <mxPoint x="-230" y="870" as="targetPoint" />
            <Array as="points">
              <mxPoint x="-187" y="785" />
            </Array>
          </mxGeometry>
        </mxCell>
        <mxCell id="McivVPNCyXZ7DG13D_mT-59" value="optimizesFor" style="edgeLabel;resizable=0;html=1;;align=center;verticalAlign=middle;" parent="McivVPNCyXZ7DG13D_mT-58" connectable="0" vertex="1">
          <mxGeometry relative="1" as="geometry" />
        </mxCell>
        <mxCell id="McivVPNCyXZ7DG13D_mT-63" value="" style="endArrow=classic;html=1;rounded=0;exitX=0.5;exitY=1;exitDx=0;exitDy=0;entryX=0;entryY=0.5;entryDx=0;entryDy=0;" parent="1" source="McivVPNCyXZ7DG13D_mT-56" target="McivVPNCyXZ7DG13D_mT-57" edge="1">
          <mxGeometry relative="1" as="geometry">
            <mxPoint x="-440" y="870" as="sourcePoint" />
            <mxPoint x="-340" y="870" as="targetPoint" />
            <Array as="points">
              <mxPoint x="-414" y="925" />
            </Array>
          </mxGeometry>
        </mxCell>
        <mxCell id="McivVPNCyXZ7DG13D_mT-64" value="implements" style="edgeLabel;resizable=0;html=1;;align=center;verticalAlign=middle;" parent="McivVPNCyXZ7DG13D_mT-63" connectable="0" vertex="1">
          <mxGeometry relative="1" as="geometry" />
        </mxCell>
        <mxCell id="McivVPNCyXZ7DG13D_mT-65" value="" style="endArrow=classic;html=1;rounded=0;exitX=1;exitY=0.5;exitDx=0;exitDy=0;entryX=0.25;entryY=1;entryDx=0;entryDy=0;" parent="1" source="McivVPNCyXZ7DG13D_mT-57" target="McivVPNCyXZ7DG13D_mT-41" edge="1">
          <mxGeometry relative="1" as="geometry">
            <mxPoint x="-160" y="930" as="sourcePoint" />
            <mxPoint x="-60" y="930" as="targetPoint" />
            <Array as="points">
              <mxPoint x="-72" y="925" />
            </Array>
          </mxGeometry>
        </mxCell>
        <mxCell id="McivVPNCyXZ7DG13D_mT-66" value="forProperty" style="edgeLabel;resizable=0;html=1;;align=center;verticalAlign=middle;" parent="McivVPNCyXZ7DG13D_mT-65" connectable="0" vertex="1">
          <mxGeometry relative="1" as="geometry" />
        </mxCell>
        <mxCell id="McivVPNCyXZ7DG13D_mT-67" value="rdfs:Literal" style="html=1;whiteSpace=wrap;fillColor=#ffe6cc;strokeColor=#d79b00;" parent="1" vertex="1">
          <mxGeometry x="-500" y="970" width="110" height="50" as="geometry" />
        </mxCell>
        <mxCell id="McivVPNCyXZ7DG13D_mT-68" value="xsd:int" style="html=1;whiteSpace=wrap;fillColor=#ffe6cc;strokeColor=#d79b00;" parent="1" vertex="1">
          <mxGeometry x="-440" y="1060" width="110" height="50" as="geometry" />
        </mxCell>
        <mxCell id="McivVPNCyXZ7DG13D_mT-69" value="" style="endArrow=classic;html=1;rounded=0;entryX=1;entryY=0.5;entryDx=0;entryDy=0;exitX=0.3;exitY=1.002;exitDx=0;exitDy=0;exitPerimeter=0;" parent="1" source="McivVPNCyXZ7DG13D_mT-57" target="McivVPNCyXZ7DG13D_mT-67" edge="1">
          <mxGeometry relative="1" as="geometry">
            <mxPoint x="-297" y="951" as="sourcePoint" />
            <mxPoint x="-330" y="1005.1" as="targetPoint" />
            <Array as="points">
              <mxPoint x="-297" y="995" />
            </Array>
          </mxGeometry>
        </mxCell>
        <mxCell id="McivVPNCyXZ7DG13D_mT-70" value="hasValueConstraint" style="edgeLabel;resizable=0;html=1;;align=center;verticalAlign=middle;" parent="McivVPNCyXZ7DG13D_mT-69" connectable="0" vertex="1">
          <mxGeometry relative="1" as="geometry" />
        </mxCell>
        <mxCell id="McivVPNCyXZ7DG13D_mT-71" value="" style="endArrow=classic;html=1;rounded=0;exitX=0.75;exitY=1;exitDx=0;exitDy=0;entryX=1;entryY=0.5;entryDx=0;entryDy=0;" parent="1" source="McivVPNCyXZ7DG13D_mT-57" target="McivVPNCyXZ7DG13D_mT-68" edge="1">
          <mxGeometry relative="1" as="geometry">
            <mxPoint x="-250" y="1050" as="sourcePoint" />
            <mxPoint x="-150" y="1050" as="targetPoint" />
            <Array as="points">
              <mxPoint x="-247" y="1085" />
            </Array>
          </mxGeometry>
        </mxCell>
        <mxCell id="McivVPNCyXZ7DG13D_mT-72" value="reachedInMaximumSeconds" style="edgeLabel;resizable=0;html=1;;align=center;verticalAlign=middle;" parent="McivVPNCyXZ7DG13D_mT-71" connectable="0" vertex="1">
          <mxGeometry relative="1" as="geometry" />
        </mxCell>
        <mxCell id="McivVPNCyXZ7DG13D_mT-73" value="Input" style="html=1;whiteSpace=wrap;fillColor=#d5e8d4;strokeColor=#82b366;" parent="1" vertex="1">
          <mxGeometry x="110" y="750" width="110" height="50" as="geometry" />
        </mxCell>
        <mxCell id="McivVPNCyXZ7DG13D_mT-74" value="Output" style="html=1;whiteSpace=wrap;fillColor=#d5e8d4;strokeColor=#82b366;" parent="1" vertex="1">
          <mxGeometry x="110" y="810" width="110" height="50" as="geometry" />
        </mxCell>
        <mxCell id="McivVPNCyXZ7DG13D_mT-77" value="" style="endArrow=classic;html=1;rounded=0;exitX=0.5;exitY=0;exitDx=0;exitDy=0;entryX=0;entryY=0.5;entryDx=0;entryDy=0;" parent="1" source="McivVPNCyXZ7DG13D_mT-41" target="McivVPNCyXZ7DG13D_mT-73" edge="1">
          <mxGeometry relative="1" as="geometry">
            <mxPoint x="-40" y="780" as="sourcePoint" />
            <mxPoint x="60" y="780" as="targetPoint" />
            <Array as="points">
              <mxPoint x="-45" y="775" />
            </Array>
          </mxGeometry>
        </mxCell>
        <mxCell id="McivVPNCyXZ7DG13D_mT-78" value="hasSubclass" style="edgeLabel;resizable=0;html=1;;align=center;verticalAlign=middle;" parent="McivVPNCyXZ7DG13D_mT-77" connectable="0" vertex="1">
          <mxGeometry relative="1" as="geometry" />
        </mxCell>
        <mxCell id="McivVPNCyXZ7DG13D_mT-79" value="" style="endArrow=classic;html=1;rounded=0;exitX=1;exitY=0.5;exitDx=0;exitDy=0;entryX=0;entryY=0.5;entryDx=0;entryDy=0;" parent="1" source="McivVPNCyXZ7DG13D_mT-41" target="McivVPNCyXZ7DG13D_mT-74" edge="1">
          <mxGeometry relative="1" as="geometry">
            <mxPoint x="-20" y="960" as="sourcePoint" />
            <mxPoint x="80" y="960" as="targetPoint" />
            <Array as="points">
              <mxPoint x="50" y="835" />
            </Array>
          </mxGeometry>
        </mxCell>
        <mxCell id="McivVPNCyXZ7DG13D_mT-80" value="hasSubclass" style="edgeLabel;resizable=0;html=1;;align=center;verticalAlign=middle;" parent="McivVPNCyXZ7DG13D_mT-79" connectable="0" vertex="1">
          <mxGeometry relative="1" as="geometry" />
        </mxCell>
        <mxCell id="McivVPNCyXZ7DG13D_mT-81" value="ObservableProperty" style="html=1;whiteSpace=wrap;fillColor=#d5e8d4;strokeColor=#82b366;" parent="1" vertex="1">
          <mxGeometry x="110" y="870" width="130" height="50" as="geometry" />
        </mxCell>
        <mxCell id="McivVPNCyXZ7DG13D_mT-82" value="" style="endArrow=classic;html=1;rounded=0;exitX=0.5;exitY=1;exitDx=0;exitDy=0;entryX=0;entryY=0.5;entryDx=0;entryDy=0;" parent="1" source="McivVPNCyXZ7DG13D_mT-41" target="McivVPNCyXZ7DG13D_mT-81" edge="1">
          <mxGeometry relative="1" as="geometry">
            <mxPoint x="20" y="970" as="sourcePoint" />
            <mxPoint x="120" y="970" as="targetPoint" />
            <Array as="points">
              <mxPoint x="-45" y="895" />
            </Array>
          </mxGeometry>
        </mxCell>
        <mxCell id="McivVPNCyXZ7DG13D_mT-83" value="hasSubclass" style="edgeLabel;resizable=0;html=1;;align=center;verticalAlign=middle;" parent="McivVPNCyXZ7DG13D_mT-82" connectable="0" vertex="1">
          <mxGeometry relative="1" as="geometry" />
        </mxCell>
        <mxCell id="WTiz_IjniEpoCx_hVVe4-2" value="rdfs:Literal" style="html=1;whiteSpace=wrap;fillColor=#ffe6cc;strokeColor=#d79b00;" vertex="1" parent="1">
          <mxGeometry x="380" y="750" width="110" height="50" as="geometry" />
        </mxCell>
        <mxCell id="WTiz_IjniEpoCx_hVVe4-3" value="rdfs:Literal" style="html=1;whiteSpace=wrap;fillColor=#ffe6cc;strokeColor=#d79b00;" vertex="1" parent="1">
          <mxGeometry x="380" y="810" width="110" height="50" as="geometry" />
        </mxCell>
        <mxCell id="WTiz_IjniEpoCx_hVVe4-4" value="rdfs:Literal" style="html=1;whiteSpace=wrap;fillColor=#ffe6cc;strokeColor=#d79b00;" vertex="1" parent="1">
          <mxGeometry x="380" y="870" width="110" height="50" as="geometry" />
        </mxCell>
        <mxCell id="WTiz_IjniEpoCx_hVVe4-5" value="" style="endArrow=classic;html=1;rounded=0;exitX=1;exitY=0.5;exitDx=0;exitDy=0;entryX=0;entryY=0.5;entryDx=0;entryDy=0;" edge="1" parent="1" source="McivVPNCyXZ7DG13D_mT-73" target="WTiz_IjniEpoCx_hVVe4-2">
          <mxGeometry relative="1" as="geometry">
            <mxPoint x="250" y="770" as="sourcePoint" />
            <mxPoint x="350" y="770" as="targetPoint" />
          </mxGeometry>
        </mxCell>
        <mxCell id="WTiz_IjniEpoCx_hVVe4-6" value="hasValue" style="edgeLabel;resizable=0;html=1;;align=center;verticalAlign=middle;" connectable="0" vertex="1" parent="WTiz_IjniEpoCx_hVVe4-5">
          <mxGeometry relative="1" as="geometry" />
        </mxCell>
        <mxCell id="WTiz_IjniEpoCx_hVVe4-7" value="" style="endArrow=classic;html=1;rounded=0;exitX=1;exitY=0.5;exitDx=0;exitDy=0;entryX=0;entryY=0.5;entryDx=0;entryDy=0;" edge="1" parent="1" source="McivVPNCyXZ7DG13D_mT-74" target="WTiz_IjniEpoCx_hVVe4-3">
          <mxGeometry relative="1" as="geometry">
            <mxPoint x="240" y="930" as="sourcePoint" />
            <mxPoint x="340" y="930" as="targetPoint" />
          </mxGeometry>
        </mxCell>
        <mxCell id="WTiz_IjniEpoCx_hVVe4-8" value="hasValue" style="edgeLabel;resizable=0;html=1;;align=center;verticalAlign=middle;" connectable="0" vertex="1" parent="WTiz_IjniEpoCx_hVVe4-7">
          <mxGeometry relative="1" as="geometry" />
        </mxCell>
        <mxCell id="WTiz_IjniEpoCx_hVVe4-9" value="" style="endArrow=classic;html=1;rounded=0;exitX=1;exitY=0.5;exitDx=0;exitDy=0;entryX=0;entryY=0.5;entryDx=0;entryDy=0;" edge="1" parent="1" source="McivVPNCyXZ7DG13D_mT-81" target="WTiz_IjniEpoCx_hVVe4-4">
          <mxGeometry relative="1" as="geometry">
            <mxPoint x="260" y="990" as="sourcePoint" />
            <mxPoint x="360" y="990" as="targetPoint" />
          </mxGeometry>
        </mxCell>
        <mxCell id="WTiz_IjniEpoCx_hVVe4-10" value="hasValue" style="edgeLabel;resizable=0;html=1;;align=center;verticalAlign=middle;" connectable="0" vertex="1" parent="WTiz_IjniEpoCx_hVVe4-9">
          <mxGeometry relative="1" as="geometry" />
        </mxCell>
        <mxCell id="WTiz_IjniEpoCx_hVVe4-11" value="" style="endArrow=classic;html=1;rounded=0;exitX=0.5;exitY=0;exitDx=0;exitDy=0;entryX=0;entryY=0.75;entryDx=0;entryDy=0;" edge="1" parent="1" source="McivVPNCyXZ7DG13D_mT-73" target="McivVPNCyXZ7DG13D_mT-18">
          <mxGeometry relative="1" as="geometry">
            <mxPoint x="240" y="660" as="sourcePoint" />
            <mxPoint x="440" y="590" as="targetPoint" />
            <Array as="points">
              <mxPoint x="165" y="708" />
            </Array>
          </mxGeometry>
        </mxCell>
        <mxCell id="WTiz_IjniEpoCx_hVVe4-12" value="hasSubclass" style="edgeLabel;resizable=0;html=1;;align=center;verticalAlign=middle;" connectable="0" vertex="1" parent="WTiz_IjniEpoCx_hVVe4-11">
          <mxGeometry relative="1" as="geometry" />
        </mxCell>
        <mxCell id="WTiz_IjniEpoCx_hVVe4-13" value="" style="endArrow=classic;html=1;rounded=0;exitX=0.004;exitY=0.296;exitDx=0;exitDy=0;exitPerimeter=0;entryX=1.003;entryY=0.1;entryDx=0;entryDy=0;entryPerimeter=0;" edge="1" parent="1" source="McivVPNCyXZ7DG13D_mT-18" target="McivVPNCyXZ7DG13D_mT-46">
          <mxGeometry relative="1" as="geometry">
            <mxPoint x="539" y="730" as="sourcePoint" />
            <mxPoint x="129" y="685" as="targetPoint" />
            <Array as="points" />
          </mxGeometry>
        </mxCell>
        <mxCell id="WTiz_IjniEpoCx_hVVe4-14" value="enacts" style="edgeLabel;resizable=0;html=1;;align=center;verticalAlign=middle;" connectable="0" vertex="1" parent="WTiz_IjniEpoCx_hVVe4-13">
          <mxGeometry relative="1" as="geometry" />
        </mxCell>
        <mxCell id="WTiz_IjniEpoCx_hVVe4-15" value="rdfs:Literal" style="html=1;whiteSpace=wrap;fillColor=#ffe6cc;strokeColor=#d79b00;" vertex="1" parent="1">
          <mxGeometry x="740" y="600" width="110" height="50" as="geometry" />
        </mxCell>
        <mxCell id="WTiz_IjniEpoCx_hVVe4-16" value="rdfs:Literal" style="html=1;whiteSpace=wrap;fillColor=#ffe6cc;strokeColor=#d79b00;" vertex="1" parent="1">
          <mxGeometry x="740" y="670" width="110" height="50" as="geometry" />
        </mxCell>
        <mxCell id="WTiz_IjniEpoCx_hVVe4-17" value="rdfs:Literal" style="html=1;whiteSpace=wrap;fillColor=#ffe6cc;strokeColor=#d79b00;" vertex="1" parent="1">
          <mxGeometry x="740" y="740" width="110" height="50" as="geometry" />
        </mxCell>
        <mxCell id="WTiz_IjniEpoCx_hVVe4-18" value="" style="endArrow=classic;html=1;rounded=0;exitX=0.75;exitY=0;exitDx=0;exitDy=0;entryX=0;entryY=0.5;entryDx=0;entryDy=0;" edge="1" parent="1" source="McivVPNCyXZ7DG13D_mT-18" target="WTiz_IjniEpoCx_hVVe4-15">
          <mxGeometry relative="1" as="geometry">
            <mxPoint x="600" y="750" as="sourcePoint" />
            <mxPoint x="700" y="750" as="targetPoint" />
            <Array as="points">
              <mxPoint x="574" y="625" />
            </Array>
          </mxGeometry>
        </mxCell>
        <mxCell id="WTiz_IjniEpoCx_hVVe4-19" value="hasLowerLimitValue" style="edgeLabel;resizable=0;html=1;;align=center;verticalAlign=middle;" connectable="0" vertex="1" parent="WTiz_IjniEpoCx_hVVe4-18">
          <mxGeometry relative="1" as="geometry" />
        </mxCell>
        <mxCell id="WTiz_IjniEpoCx_hVVe4-20" value="" style="endArrow=classic;html=1;rounded=0;exitX=1;exitY=0.5;exitDx=0;exitDy=0;entryX=0;entryY=0.5;entryDx=0;entryDy=0;" edge="1" parent="1" source="McivVPNCyXZ7DG13D_mT-18" target="WTiz_IjniEpoCx_hVVe4-16">
          <mxGeometry relative="1" as="geometry">
            <mxPoint x="620" y="690" as="sourcePoint" />
            <mxPoint x="710" y="700" as="targetPoint" />
          </mxGeometry>
        </mxCell>
        <mxCell id="WTiz_IjniEpoCx_hVVe4-21" value="hasUpperLimitValue" style="edgeLabel;resizable=0;html=1;;align=center;verticalAlign=middle;" connectable="0" vertex="1" parent="WTiz_IjniEpoCx_hVVe4-20">
          <mxGeometry relative="1" as="geometry" />
        </mxCell>
        <mxCell id="WTiz_IjniEpoCx_hVVe4-22" value="" style="endArrow=classic;html=1;rounded=0;exitX=0.75;exitY=1;exitDx=0;exitDy=0;entryX=0;entryY=0.5;entryDx=0;entryDy=0;" edge="1" parent="1" source="McivVPNCyXZ7DG13D_mT-18" target="WTiz_IjniEpoCx_hVVe4-17">
          <mxGeometry relative="1" as="geometry">
            <mxPoint x="580" y="760" as="sourcePoint" />
            <mxPoint x="680" y="760" as="targetPoint" />
            <Array as="points">
              <mxPoint x="574" y="765" />
            </Array>
          </mxGeometry>
        </mxCell>
        <mxCell id="WTiz_IjniEpoCx_hVVe4-23" value="hasValueIncrements" style="edgeLabel;resizable=0;html=1;;align=center;verticalAlign=middle;" connectable="0" vertex="1" parent="WTiz_IjniEpoCx_hVVe4-22">
          <mxGeometry relative="1" as="geometry" />
        </mxCell>
        <mxCell id="WTiz_IjniEpoCx_hVVe4-24" value="" style="endArrow=classic;html=1;rounded=0;exitX=0.5;exitY=0;exitDx=0;exitDy=0;" edge="1" parent="1" source="McivVPNCyXZ7DG13D_mT-46">
          <mxGeometry relative="1" as="geometry">
            <mxPoint x="60" y="650" as="sourcePoint" />
            <mxPoint x="440" y="500" as="targetPoint" />
            <Array as="points">
              <mxPoint x="24" y="640" />
              <mxPoint x="440" y="640" />
            </Array>
          </mxGeometry>
        </mxCell>
        <mxCell id="WTiz_IjniEpoCx_hVVe4-25" value="alteredBy" style="edgeLabel;resizable=0;html=1;;align=center;verticalAlign=middle;" connectable="0" vertex="1" parent="WTiz_IjniEpoCx_hVVe4-24">
          <mxGeometry relative="1" as="geometry" />
        </mxCell>
      </root>
    </mxGraphModel>
  </diagram>
</mxfile>
